<svg xmlns="http://www.w3.org/2000/svg" viewBox="0 0 480 140" shape-rendering="crispEdges" role="img" aria-label="Overgrow — Claude mascot, bonemeal, growing wheat">
  <title>Overgrow</title>

  <!-- MASCOT: 16x10 → render 96x60, bottom-aligned to baseline y=132 -->
  <svg x="72" y="72" width="96" height="60" viewBox="0 0 16 10">
    <g fill="#D97757">
      <rect x="2" y="0" width="12" height="8"/>
      <rect x="0" y="4" width="2" height="2"/>
      <rect x="14" y="4" width="2" height="2"/>
      <rect x="3"  y="8" width="1" height="2"/>
      <rect x="5"  y="8" width="1" height="2"/>
      <rect x="10" y="8" width="1" height="2"/>
      <rect x="12" y="8" width="1" height="2"/>
    </g>
    <g fill="#000000">
      <rect x="4"  y="2" width="1" height="2"/>
      <rect x="11" y="2" width="1" height="2"/>
    </g>
  </svg>

  <!-- BONEMEAL: 16x16 → render 96x96, bottom-aligned -->
  <svg x="192" y="36" width="96" height="96" viewBox="0 0 16 16">
    <g fill="#8a88a8">
      <rect x="4" y="1" width="1" height="1"/><rect x="3" y="2" width="1" height="1"/><rect x="6" y="2" width="1" height="1"/><rect x="11" y="2" width="1" height="1"/>
      <rect x="3" y="3" width="1" height="1"/><rect x="7" y="3" width="1" height="1"/><rect x="8" y="3" width="1" height="1"/><rect x="10" y="3" width="1" height="1"/><rect x="12" y="3" width="1" height="1"/>
      <rect x="2" y="4" width="1" height="1"/><rect x="12" y="4" width="1" height="1"/>
      <rect x="2" y="5" width="1" height="1"/><rect x="13" y="5" width="1" height="1"/>
      <rect x="13" y="6" width="1" height="1"/>
      <rect x="2" y="7" width="1" height="1"/><rect x="14" y="7" width="1" height="1"/>
      <rect x="2" y="8" width="1" height="1"/><rect x="14" y="8" width="1" height="1"/>
      <rect x="1" y="9" width="1" height="1"/><rect x="14" y="9" width="1" height="1"/>
      <rect x="13" y="10" width="1" height="1"/>
      <rect x="1" y="11" width="1" height="1"/><rect x="3" y="11" width="1" height="1"/><rect x="13" y="11" width="1" height="1"/>
      <rect x="2" y="12" width="1" height="1"/><rect x="4" y="12" width="1" height="1"/><rect x="10" y="12" width="1" height="1"/><rect x="13" y="12" width="1" height="1"/>
      <rect x="5" y="13" width="1" height="1"/><rect x="9" y="13" width="1" height="1"/><rect x="11" y="13" width="1" height="1"/><rect x="13" y="13" width="1" height="1"/>
      <rect x="6" y="14" width="1" height="1"/><rect x="7" y="14" width="1" height="1"/><rect x="8" y="14" width="1" height="1"/><rect x="12" y="14" width="1" height="1"/>
    </g>
    <g fill="#b8b6d0">
      <rect x="5" y="2" width="1" height="1"/>
      <rect x="6" y="4" width="1" height="1"/><rect x="9" y="4" width="1" height="1"/>
      <rect x="4" y="5" width="1" height="1"/><rect x="5" y="5" width="1" height="1"/><rect x="7" y="5" width="1" height="1"/><rect x="10" y="5" width="1" height="1"/>
      <rect x="3" y="6" width="1" height="1"/><rect x="6" y="6" width="1" height="1"/><rect x="10" y="6" width="1" height="1"/><rect x="12" y="6" width="1" height="1"/>
      <rect x="6" y="7" width="1" height="1"/><rect x="11" y="7" width="1" height="1"/>
      <rect x="5" y="8" width="1" height="1"/><rect x="8" y="8" width="1" height="1"/><rect x="10" y="8" width="1" height="1"/>
      <rect x="4" y="9" width="1" height="1"/><rect x="9" y="9" width="1" height="1"/><rect x="12" y="9" width="1" height="1"/>
      <rect x="2" y="10" width="1" height="1"/><rect x="4" y="10" width="1" height="1"/><rect x="5" y="10" width="1" height="1"/><rect x="7" y="10" width="1" height="1"/><rect x="8" y="10" width="1" height="1"/><rect x="11" y="10" width="1" height="1"/>
      <rect x="6" y="11" width="1" height="1"/><rect x="9" y="11" width="1" height="1"/><rect x="10" y="11" width="1" height="1"/>
      <rect x="5" y="12" width="1" height="1"/><rect x="7" y="12" width="1" height="1"/><rect x="8" y="12" width="1" height="1"/><rect x="9" y="12" width="1" height="1"/><rect x="11" y="12" width="1" height="1"/>
    </g>
    <g fill="#e6e4f5">
      <rect x="4" y="2" width="1" height="1"/>
      <rect x="6" y="3" width="1" height="1"/><rect x="11" y="3" width="1" height="1"/>
      <rect x="3" y="4" width="1" height="1"/><rect x="5" y="4" width="1" height="1"/><rect x="7" y="4" width="1" height="1"/><rect x="8" y="4" width="1" height="1"/><rect x="10" y="4" width="1" height="1"/>
      <rect x="3" y="5" width="1" height="1"/><rect x="6" y="5" width="1" height="1"/><rect x="12" y="5" width="1" height="1"/>
      <rect x="7" y="6" width="1" height="1"/><rect x="9" y="6" width="1" height="1"/><rect x="11" y="6" width="1" height="1"/>
      <rect x="3" y="7" width="1" height="1"/><rect x="5" y="7" width="1" height="1"/><rect x="7" y="7" width="1" height="1"/><rect x="8" y="7" width="1" height="1"/><rect x="9" y="7" width="1" height="1"/><rect x="10" y="7" width="1" height="1"/><rect x="12" y="7" width="1" height="1"/><rect x="13" y="7" width="1" height="1"/>
      <rect x="4" y="8" width="1" height="1"/><rect x="7" y="8" width="1" height="1"/><rect x="9" y="8" width="1" height="1"/><rect x="13" y="8" width="1" height="1"/>
      <rect x="2" y="9" width="1" height="1"/><rect x="3" y="9" width="1" height="1"/><rect x="5" y="9" width="1" height="1"/><rect x="7" y="9" width="1" height="1"/><rect x="8" y="9" width="1" height="1"/><rect x="11" y="9" width="1" height="1"/><rect x="13" y="9" width="1" height="1"/>
      <rect x="3" y="10" width="1" height="1"/><rect x="6" y="10" width="1" height="1"/><rect x="9" y="10" width="1" height="1"/><rect x="10" y="10" width="1" height="1"/><rect x="12" y="10" width="1" height="1"/>
      <rect x="2" y="11" width="1" height="1"/><rect x="4" y="11" width="1" height="1"/><rect x="5" y="11" width="1" height="1"/><rect x="7" y="11" width="1" height="1"/><rect x="8" y="11" width="1" height="1"/><rect x="11" y="11" width="1" height="1"/><rect x="12" y="11" width="1" height="1"/>
      <rect x="6" y="12" width="1" height="1"/>
      <rect x="6" y="13" width="1" height="1"/><rect x="7" y="13" width="1" height="1"/><rect x="8" y="13" width="1" height="1"/><rect x="12" y="13" width="1" height="1"/>
    </g>
    <g fill="#ffffff">
      <rect x="4" y="3" width="1" height="1"/><rect x="5" y="3" width="1" height="1"/>
      <rect x="4" y="4" width="1" height="1"/><rect x="11" y="4" width="1" height="1"/>
      <rect x="8" y="5" width="1" height="1"/><rect x="9" y="5" width="1" height="1"/><rect x="11" y="5" width="1" height="1"/>
      <rect x="4" y="6" width="1" height="1"/><rect x="5" y="6" width="1" height="1"/><rect x="8" y="6" width="1" height="1"/>
      <rect x="4" y="7" width="1" height="1"/>
      <rect x="3" y="8" width="1" height="1"/><rect x="6" y="8" width="1" height="1"/><rect x="11" y="8" width="1" height="1"/><rect x="12" y="8" width="1" height="1"/>
      <rect x="6" y="9" width="1" height="1"/><rect x="10" y="9" width="1" height="1"/>
      <rect x="12" y="12" width="1" height="1"/>
    </g>
  </svg>

  <!-- WHEAT GROWTH: 16x20 → render 96x120, bottom-aligned (baseline y=132) -->
  <svg x="312" y="12" width="96" height="120" viewBox="0 0 16 20" preserveAspectRatio="xMidYMax meet">
    <title>Wheat growth cycle</title>
    <desc>8-stage pixel art wheat growth animation</desc>
    <g opacity="1">
      <path fill="#4b8f28" d="M6 17h1v1h-1zM8 18h1v1h-1z"/>
      <path fill="#55ab2e" d="M7 18h1v1h-1z"/>
      <path fill="#46742c" d="M11 18h1v1h-1zM2 19h1v1h-1z"/>
      <path fill="#2d5f20" d="M7 19h1v1h-1zM11 19h1v1h-1z"/>
      <animate attributeName="opacity" dur="4.8s" repeatCount="indefinite" calcMode="discrete" keyTimes="0;0.125;0.25;0.375;0.5;0.625;0.75;0.875;1" values="1;0;0;0;0;0;0;0;0"/>
    </g>
    <g opacity="0">
      <path fill="#4b8f28" d="M7 15h1v1h-1zM8 16h1v1h-1zM1 17h1v1h-1zM6 17h1v1h-1zM7 17h1v1h-1zM3 18h1v1h-1zM6 18h1v1h-1z"/>
      <path fill="#55ab2e" d="M7 16h1v1h-1zM2 18h1v1h-1z"/>
      <path fill="#2d5f20" d="M7 18h1v1h-1zM2 19h1v1h-1zM4 19h1v1h-1zM7 19h1v1h-1zM11 19h1v1h-1zM14 19h1v1h-1z"/>
      <path fill="#46742c" d="M11 18h1v1h-1z"/>
      <animate attributeName="opacity" dur="4.8s" repeatCount="indefinite" calcMode="discrete" keyTimes="0;0.125;0.25;0.375;0.5;0.625;0.75;0.875;1" values="0;1;0;0;0;0;0;0;0"/>
    </g>
    <g opacity="0">
      <path fill="#4b8f28" d="M8 13h1v1h-1zM2 15h1v1h-1zM5 15h1v1h-1zM7 15h1v1h-1zM3 16h1v1h-1zM7 16h1v1h-1zM1 17h1v1h-1zM2 17h1v1h-1zM6 17h1v1h-1zM1 18h1v1h-1zM12 18h1v1h-1z"/>
      <path fill="#92be37" d="M7 14h1v1h-1z"/>
      <path fill="#55ab2e" d="M8 14h1v1h-1zM6 15h1v1h-1zM8 15h1v1h-1zM2 16h1v1h-1zM6 16h1v1h-1zM11 18h1v1h-1z"/>
      <path fill="#46742c" d="M7 17h1v1h-1zM7 18h1v1h-1z"/>
      <path fill="#469335" d="M10 17h1v1h-1z"/>
      <path fill="#2d5f20" d="M2 18h1v1h-1zM4 18h1v1h-1zM14 18h1v1h-1zM0 19h1v1h-1zM2 19h1v1h-1zM4 19h1v1h-1zM5 19h1v1h-1zM9 19h1v1h-1zM11 19h1v1h-1zM13 19h1v1h-1zM14 19h1v1h-1z"/>
      <path fill="#6a522c" d="M7 19h1v1h-1z"/>
      <animate attributeName="opacity" dur="4.8s" repeatCount="indefinite" calcMode="discrete" keyTimes="0;0.125;0.25;0.375;0.5;0.625;0.75;0.875;1" values="0;0;1;0;0;0;0;0;0"/>
    </g>
    <g opacity="0">
      <path fill="#55ab2e" d="M7 11h1v1h-1zM8 12h1v1h-1zM9 12h1v1h-1zM7 13h1v1h-1zM3 14h1v1h-1zM5 14h1v1h-1zM6 14h1v1h-1zM1 15h1v1h-1zM3 15h1v1h-1zM1 16h1v1h-1zM11 16h1v1h-1z"/>
      <path fill="#92be37" d="M7 12h1v1h-1zM2 14h1v1h-1z"/>
      <path fill="#4b8f28" d="M3 13h1v1h-1zM8 13h1v1h-1zM7 14h1v1h-1zM0 15h1v1h-1zM2 15h1v1h-1zM6 15h1v1h-1zM7 15h1v1h-1zM11 15h1v1h-1zM2 16h1v1h-1zM12 16h1v1h-1zM1 17h1v1h-1zM10 17h1v1h-1zM11 17h1v1h-1zM10 18h1v1h-1z"/>
      <path fill="#46742c" d="M4 16h1v1h-1zM6 16h1v1h-1zM14 16h1v1h-1zM2 17h1v1h-1zM4 17h1v1h-1zM7 17h1v1h-1zM9 17h1v1h-1zM14 17h1v1h-1zM2 18h1v1h-1zM5 18h1v1h-1zM9 18h1v1h-1zM13 18h1v1h-1zM11 19h1v1h-1z"/>
      <path fill="#856b3a" d="M7 16h1v1h-1z"/>
      <path fill="#2d5f20" d="M0 18h1v1h-1zM4 18h1v1h-1zM11 18h1v1h-1zM14 18h1v1h-1zM0 19h1v1h-1zM1 19h1v1h-1zM4 19h1v1h-1zM5 19h1v1h-1zM8 19h1v1h-1zM9 19h1v1h-1zM12 19h1v1h-1zM13 19h1v1h-1zM14 19h1v1h-1z"/>
      <path fill="#6a522c" d="M7 18h1v1h-1zM2 19h1v1h-1zM7 19h1v1h-1z"/>
      <animate attributeName="opacity" dur="4.8s" repeatCount="indefinite" calcMode="discrete" keyTimes="0;0.125;0.25;0.375;0.5;0.625;0.75;0.875;1" values="0;0;0;1;0;0;0;0;0"/>
    </g>
    <g opacity="0">
      <path fill="#92be37" d="M7 8h1v1h-1zM6 9h1v1h-1zM7 10h1v1h-1zM2 12h1v1h-1zM11 14h1v1h-1z"/>
      <path fill="#55ab2e" d="M7 9h1v1h-1zM8 10h1v1h-1zM2 11h1v1h-1zM7 11h1v1h-1zM3 12h1v1h-1zM2 13h1v1h-1zM12 13h1v1h-1zM1 14h1v1h-1zM2 14h1v1h-1zM6 14h1v1h-1zM10 14h1v1h-1zM12 14h1v1h-1zM2 15h1v1h-1zM11 15h1v1h-1zM10 16h1v1h-1z"/>
      <path fill="#4b8f28" d="M9 10h1v1h-1zM8 11h1v1h-1zM4 12h1v1h-1zM7 12h1v1h-1zM3 13h1v1h-1zM7 13h1v1h-1zM13 13h1v1h-1zM0 14h1v1h-1zM5 14h1v1h-1zM1 15h1v1h-1zM12 15h1v1h-1zM2 16h1v1h-1zM11 16h1v1h-1z"/>
      <path fill="#46742c" d="M7 14h1v1h-1zM3 15h1v1h-1zM6 15h1v1h-1zM9 15h1v1h-1zM1 16h1v1h-1zM4 16h1v1h-1zM13 16h1v1h-1zM14 16h1v1h-1zM4 17h1v1h-1zM6 17h1v1h-1zM9 17h1v1h-1zM10 17h1v1h-1zM14 17h1v1h-1zM0 18h1v1h-1zM3 18h1v1h-1zM8 18h1v1h-1zM12 18h1v1h-1z"/>
      <path fill="#856b3a" d="M7 15h1v1h-1zM2 17h1v1h-1zM11 17h1v1h-1zM2 18h1v1h-1zM7 18h1v1h-1z"/>
      <path fill="#2d5f20" d="M14 15h1v1h-1zM9 16h1v1h-1zM12 16h1v1h-1zM13 17h1v1h-1zM4 18h1v1h-1zM5 18h1v1h-1zM9 18h1v1h-1zM14 18h1v1h-1zM0 19h1v1h-1zM4 19h1v1h-1zM6 19h1v1h-1zM9 19h1v1h-1zM11 19h1v1h-1z"/>
      <path fill="#6a522c" d="M0 16h1v1h-1zM0 17h1v1h-1zM5 17h1v1h-1zM1 18h1v1h-1zM6 18h1v1h-1zM10 18h1v1h-1zM11 18h1v1h-1zM2 19h1v1h-1zM7 19h1v1h-1zM12 19h1v1h-1zM14 19h1v1h-1z"/>
      <path fill="#b6ab41" d="M7 16h1v1h-1zM7 17h1v1h-1z"/>
      <animate attributeName="opacity" dur="4.8s" repeatCount="indefinite" calcMode="discrete" keyTimes="0;0.125;0.25;0.375;0.5;0.625;0.75;0.875;1" values="0;0;0;0;1;0;0;0;0"/>
    </g>
    <g opacity="0">
      <path fill="#92be37" d="M7 6h1v1h-1zM6 7h1v1h-1zM2 8h1v1h-1zM7 8h1v1h-1zM1 9h1v1h-1zM2 10h1v1h-1zM11 12h1v1h-1z"/>
      <path fill="#55ab2e" d="M7 7h1v1h-1zM6 8h1v1h-1zM8 8h1v1h-1zM2 9h1v1h-1zM7 9h1v1h-1zM3 10h1v1h-1zM2 11h1v1h-1zM11 11h1v1h-1zM2 12h1v1h-1zM6 12h1v1h-1zM7 12h1v1h-1zM12 12h1v1h-1zM1 13h1v1h-1zM7 13h1v1h-1zM11 13h1v1h-1zM10 14h1v1h-1z"/>
      <path fill="#4b8f28" d="M9 8h1v1h-1zM4 10h1v1h-1zM3 11h1v1h-1zM5 12h1v1h-1zM13 12h1v1h-1zM2 13h1v1h-1zM12 13h1v1h-1zM2 14h1v1h-1zM9 14h1v1h-1zM11 14h1v1h-1zM14 14h1v1h-1zM11 15h1v1h-1zM14 15h1v1h-1zM12 17h1v1h-1z"/>
      <path fill="#46742c" d="M8 9h1v1h-1zM7 10h1v1h-1zM7 11h1v1h-1zM4 13h1v1h-1zM6 13h1v1h-1zM9 13h1v1h-1zM0 14h1v1h-1zM1 14h1v1h-1zM3 14h1v1h-1zM7 14h1v1h-1zM2 15h1v1h-1zM5 15h1v1h-1zM10 15h1v1h-1zM13 15h1v1h-1zM15 15h1v1h-1zM2 16h1v1h-1zM6 16h1v1h-1zM11 16h1v1h-1zM14 16h1v1h-1zM0 17h1v1h-1zM4 17h1v1h-1zM8 17h1v1h-1zM11 17h1v1h-1zM14 17h1v1h-1zM3 18h1v1h-1zM6 18h1v1h-1z"/>
      <path fill="#856b3a" d="M8 12h1v1h-1zM4 14h1v1h-1zM1 15h1v1h-1zM7 15h1v1h-1zM5 16h1v1h-1zM10 17h1v1h-1zM11 18h1v1h-1zM13 18h1v1h-1z"/>
      <path fill="#6a522c" d="M8 13h1v1h-1zM12 14h1v1h-1zM0 15h1v1h-1zM4 15h1v1h-1zM9 15h1v1h-1zM0 16h1v1h-1zM4 16h1v1h-1zM9 16h1v1h-1zM5 17h1v1h-1zM6 17h1v1h-1zM2 19h1v1h-1zM7 19h1v1h-1zM11 19h1v1h-1z"/>
      <path fill="#2d5f20" d="M1 16h1v1h-1zM13 16h1v1h-1zM1 17h1v1h-1zM9 17h1v1h-1zM0 18h1v1h-1zM4 18h1v1h-1zM8 18h1v1h-1zM9 18h1v1h-1zM12 18h1v1h-1zM14 18h1v1h-1zM0 19h1v1h-1zM4 19h1v1h-1zM6 19h1v1h-1zM9 19h1v1h-1zM12 19h1v1h-1zM14 19h1v1h-1z"/>
      <path fill="#b6ab41" d="M7 16h1v1h-1zM2 17h1v1h-1zM7 17h1v1h-1zM2 18h1v1h-1zM7 18h1v1h-1z"/>
      <animate attributeName="opacity" dur="4.8s" repeatCount="indefinite" calcMode="discrete" keyTimes="0;0.125;0.25;0.375;0.5;0.625;0.75;0.875;1" values="0;0;0;0;0;1;0;0;0"/>
    </g>
    <g opacity="0">
      <path fill="#cbc452" d="M7 3h1v1h-1zM6 4h1v1h-1zM1 5h1v1h-1zM7 5h1v1h-1zM2 6h1v1h-1zM6 6h1v1h-1zM14 6h1v1h-1zM1 7h1v1h-1zM7 7h1v1h-1zM13 7h1v1h-1zM2 8h1v1h-1zM9 8h1v1h-1zM14 8h1v1h-1zM4 9h1v1h-1zM13 9h1v1h-1zM12 10h1v1h-1zM14 12h1v1h-1z"/>
      <path fill="#b6ab41" d="M7 4h1v1h-1zM6 5h1v1h-1zM1 6h1v1h-1zM7 6h1v1h-1zM2 7h1v1h-1zM6 7h1v1h-1zM14 7h1v1h-1zM1 8h1v1h-1zM7 8h1v1h-1zM13 8h1v1h-1zM2 9h1v1h-1zM8 9h1v1h-1zM12 9h1v1h-1zM14 9h1v1h-1zM3 10h1v1h-1zM13 10h1v1h-1zM5 12h1v1h-1zM13 12h1v1h-1zM1 13h1v1h-1zM6 13h1v1h-1zM3 14h1v1h-1zM1 16h1v1h-1zM9 16h1v1h-1zM2 17h1v1h-1zM7 17h1v1h-1z"/>
      <path fill="#856b3a" d="M7 9h1v1h-1zM2 10h1v1h-1zM8 10h1v1h-1zM12 11h1v1h-1zM2 12h1v1h-1zM7 12h1v1h-1zM12 12h1v1h-1zM3 13h1v1h-1zM7 13h1v1h-1zM11 13h1v1h-1zM9 14h1v1h-1zM11 14h1v1h-1zM2 15h1v1h-1zM4 15h1v1h-1zM12 15h1v1h-1zM0 16h1v1h-1zM4 16h1v1h-1zM13 16h1v1h-1zM14 16h1v1h-1zM12 17h1v1h-1zM12 18h1v1h-1z"/>
      <path fill="#90ac31" d="M9 9h1v1h-1zM1 12h1v1h-1zM5 13h1v1h-1zM12 13h1v1h-1zM14 13h1v1h-1z"/>
      <path fill="#6e8c2a" d="M4 10h1v1h-1zM9 10h1v1h-1zM8 11h1v1h-1zM14 11h1v1h-1zM10 12h1v1h-1zM15 12h1v1h-1zM0 13h1v1h-1zM13 13h1v1h-1zM6 14h1v1h-1zM12 14h1v1h-1zM15 14h1v1h-1zM1 15h1v1h-1zM8 15h1v1h-1zM13 15h1v1h-1zM10 16h1v1h-1zM3 17h1v1h-1zM5 17h1v1h-1zM8 17h1v1h-1z"/>
      <path fill="#95882c" d="M7 10h1v1h-1zM2 11h1v1h-1zM7 11h1v1h-1zM4 12h1v1h-1zM2 13h1v1h-1zM10 13h1v1h-1zM2 14h1v1h-1zM10 14h1v1h-1zM14 14h1v1h-1zM7 15h1v1h-1zM11 15h1v1h-1zM14 15h1v1h-1zM5 16h1v1h-1zM7 16h1v1h-1zM0 17h1v1h-1zM4 17h1v1h-1zM14 17h1v1h-1zM2 18h1v1h-1zM7 18h1v1h-1zM9 18h1v1h-1zM5 19h1v1h-1z"/>
      <path fill="#54661c" d="M3 11h1v1h-1zM0 14h1v1h-1zM1 14h1v1h-1zM9 17h1v1h-1zM1 18h1v1h-1zM3 18h1v1h-1zM6 18h1v1h-1zM8 18h1v1h-1zM11 18h1v1h-1zM6 19h1v1h-1zM9 19h1v1h-1zM13 19h1v1h-1z"/>
      <path fill="#6a5b24" d="M4 13h1v1h-1zM8 13h1v1h-1zM4 14h1v1h-1zM7 14h1v1h-1zM8 14h1v1h-1zM0 15h1v1h-1zM6 15h1v1h-1zM9 15h1v1h-1zM10 15h1v1h-1zM2 16h1v1h-1zM11 16h1v1h-1zM11 17h1v1h-1zM0 18h1v1h-1zM4 18h1v1h-1zM10 18h1v1h-1zM14 18h1v1h-1zM0 19h1v1h-1zM2 19h1v1h-1zM4 19h1v1h-1zM7 19h1v1h-1zM10 19h1v1h-1zM12 19h1v1h-1zM14 19h1v1h-1zM15 19h1v1h-1z"/>
      <animate attributeName="opacity" dur="4.8s" repeatCount="indefinite" calcMode="discrete" keyTimes="0;0.125;0.25;0.375;0.5;0.625;0.75;0.875;1" values="0;0;0;0;0;0;1;0;0"/>
    </g>
    <g opacity="0">
      <path fill="#dbbb64" d="M7 0h1v1h-1zM6 1h1v1h-1zM1 2h1v1h-1zM7 2h1v1h-1zM11 2h1v1h-1zM2 3h1v1h-1zM6 3h1v1h-1zM10 3h1v1h-1zM15 3h1v1h-1zM1 4h1v1h-1zM7 4h1v1h-1zM11 4h1v1h-1zM14 4h1v1h-1zM2 5h1v1h-1zM6 5h1v1h-1zM10 5h1v1h-1zM15 5h1v1h-1zM1 6h1v1h-1zM7 6h1v1h-1zM11 6h1v1h-1zM14 6h1v1h-1zM2 7h1v1h-1zM4 7h1v1h-1zM10 7h1v1h-1zM13 7h1v1h-1zM5 10h1v1h-1zM6 11h1v1h-1zM0 12h1v1h-1zM1 13h1v1h-1zM2 14h1v1h-1zM3 17h1v1h-1z"/>
      <path fill="#ccb158" d="M7 1h1v1h-1zM1 3h1v1h-1zM7 3h1v1h-1zM11 3h1v1h-1zM2 4h1v1h-1zM15 4h1v1h-1zM10 6h1v1h-1zM14 7h1v1h-1zM3 8h1v1h-1zM8 8h1v1h-1zM13 8h1v1h-1zM11 10h1v1h-1zM14 10h1v1h-1zM5 11h1v1h-1zM9 11h1v1h-1zM13 13h1v1h-1zM1 14h1v1h-1z"/>
      <path fill="#bea352" d="M6 2h1v1h-1zM6 4h1v1h-1zM10 4h1v1h-1zM1 5h1v1h-1zM7 5h1v1h-1zM11 5h1v1h-1zM14 5h1v1h-1zM2 6h1v1h-1zM13 6h1v1h-1zM7 7h1v1h-1zM9 7h1v1h-1zM2 8h1v1h-1zM7 9h1v1h-1zM12 9h1v1h-1zM14 9h1v1h-1zM13 11h1v1h-1zM14 11h1v1h-1zM4 13h1v1h-1zM3 14h1v1h-1zM5 14h1v1h-1zM8 14h1v1h-1zM2 15h1v1h-1zM9 15h1v1h-1zM13 15h1v1h-1zM9 16h1v1h-1zM4 17h1v1h-1z"/>
      <path fill="#8b8635" d="M4 8h1v1h-1zM8 9h1v1h-1zM10 10h1v1h-1zM12 10h1v1h-1zM2 11h1v1h-1zM7 11h1v1h-1zM1 12h1v1h-1zM5 12h1v1h-1zM7 12h1v1h-1zM11 12h1v1h-1zM11 13h1v1h-1zM0 14h1v1h-1zM10 14h1v1h-1zM12 14h1v1h-1zM14 14h1v1h-1zM1 15h1v1h-1zM3 15h1v1h-1zM10 15h1v1h-1zM11 16h1v1h-1zM2 17h1v1h-1z"/>
      <path fill="#b19f5f" d="M7 8h1v1h-1zM10 8h1v1h-1zM2 9h1v1h-1zM10 9h1v1h-1zM2 10h1v1h-1zM7 10h1v1h-1zM15 10h1v1h-1zM10 11h1v1h-1zM11 11h1v1h-1zM3 12h1v1h-1zM14 12h1v1h-1zM7 13h1v1h-1zM14 13h1v1h-1zM13 14h1v1h-1zM11 15h1v1h-1zM6 16h1v1h-1zM1 17h1v1h-1zM6 17h1v1h-1zM15 17h1v1h-1zM2 18h1v1h-1zM11 18h1v1h-1z"/>
      <path fill="#75772e" d="M9 8h1v1h-1zM3 9h1v1h-1zM1 11h1v1h-1zM2 12h1v1h-1zM6 12h1v1h-1zM10 12h1v1h-1zM0 13h1v1h-1zM2 13h1v1h-1zM10 13h1v1h-1zM5 15h1v1h-1zM7 15h1v1h-1zM14 15h1v1h-1zM1 16h1v1h-1zM5 16h1v1h-1zM14 16h1v1h-1zM6 18h1v1h-1zM8 18h1v1h-1zM10 18h1v1h-1zM15 18h1v1h-1z"/>
      <path fill="#79731b" d="M9 9h1v1h-1zM9 12h1v1h-1zM6 13h1v1h-1zM7 14h1v1h-1zM15 14h1v1h-1zM15 15h1v1h-1zM0 16h1v1h-1zM12 16h1v1h-1zM7 17h1v1h-1zM10 17h1v1h-1zM11 17h1v1h-1zM13 17h1v1h-1zM3 18h1v1h-1zM4 18h1v1h-1zM12 18h1v1h-1zM14 18h1v1h-1zM5 19h1v1h-1zM10 19h1v1h-1zM14 19h1v1h-1z"/>
      <path fill="#675e25" d="M8 10h1v1h-1zM8 12h1v1h-1zM12 12h1v1h-1zM3 13h1v1h-1zM8 13h1v1h-1zM12 13h1v1h-1zM15 13h1v1h-1zM6 14h1v1h-1zM9 14h1v1h-1zM0 15h1v1h-1zM4 15h1v1h-1zM12 15h1v1h-1zM3 16h1v1h-1zM7 16h1v1h-1zM8 16h1v1h-1zM10 16h1v1h-1zM0 17h1v1h-1zM5 17h1v1h-1zM8 17h1v1h-1zM12 17h1v1h-1zM14 17h1v1h-1zM0 18h1v1h-1zM5 18h1v1h-1zM7 18h1v1h-1zM9 18h1v1h-1zM0 19h1v1h-1zM2 19h1v1h-1zM3 19h1v1h-1zM7 19h1v1h-1zM9 19h1v1h-1zM12 19h1v1h-1zM13 19h1v1h-1zM15 19h1v1h-1z"/>
      <animate attributeName="opacity" dur="4.8s" repeatCount="indefinite" calcMode="discrete" keyTimes="0;0.125;0.25;0.375;0.5;0.625;0.75;0.875;1" values="0;0;0;0;0;0;0;1;1"/>
    </g>
  </svg>
</svg>
